<svg width="7000" height="5000" xmlns="http://www.w3.org/2000/svg">
 <defs>
  <filter height="200%" width="200%" y="-50%" x="-50%" id="_blur">
   <feGaussianBlur stdDeviation="0.7" in="SourceGraphic"/>
  </filter>
 </defs>
 <g>
  <title>Layer 1</title>
  <g transform="rotate(-0.395507 1841.62 2347.69)" stroke="null" filter="url(#_blur)" stroke-width="9">
   <path stroke="#ffffff" fill="#fcf7f7" d="m2194.97181,1476.36861l-705.85465,0c-306.60035,0 -489.38133,189.07573 -489.38133,506.23501l0,729.29208c0,318.0306 182.78098,507.10632 489.38133,507.10632l705.01234,0c306.60035,0 489.38133,-189.07573 489.38133,-506.23501l0,-730.1634c0.84231,-317.15928 -181.93867,-506.23501 -488.53902,-506.23501zm-526.44291,981.97393c-57.27699,88.8743 -136.454,161.19359 -229.10795,209.11601c-8.42309,4.35658 -18.53079,6.97053 -27.79619,6.97053c-23.58464,0 -45.48467,-13.06975 -56.43468,-35.72399c-16.00386,-32.23872 -3.36923,-71.44797 28.63849,-88.00299c73.28085,-37.46662 135.61169,-94.97352 180.25405,-164.67886c15.16156,-23.52555 15.16156,-53.15032 0,-76.67587c-45.48467,-69.70534 -107.81551,-127.21224 -180.25405,-164.67886c-32.00773,-15.6837 -44.64236,-54.89295 -28.63849,-88.00299c15.16156,-32.23872 53.06544,-45.30847 84.23086,-28.75345c92.65395,47.92242 171.83096,120.24171 229.10795,209.11601c43.80005,67.09139 43.80005,154.22306 0,221.31444zm594.66991,216.08654l-336.92346,0c-34.53465,0 -63.17315,-29.62477 -63.17315,-65.34875c0,-35.72399 28.63849,-65.34875 63.17315,-65.34875l336.92346,0c34.53465,0 63.17315,29.62477 63.17315,65.34875c0,35.72399 -28.63849,65.34875 -63.17315,65.34875z"/>
  </g>
  <text opacity="0.85" font-style="italic" font-weight="bold" transform="matrix(25.631 0 0 36.7206 -13739.5 -12558.4)" stroke="#ffffff" xml:space="preserve" text-anchor="start" font-family="'Grandstander'" font-size="28" id="svg_2" y="412.29307" x="657.51946" fill="#ffffff">Eddie Xu</text>
 </g>
</svg>